<svg width="35" height="30" viewBox="0 0 35 30" fill="none" xmlns="http://www.w3.org/2000/svg">
<path fill-rule="evenodd" clip-rule="evenodd" d="M14.4361 25.095C14.4361 27.7186 12.406 30 8.79701 30C5.30076 30 0 26.5779 0 20.1901C0 9.3536 9.81205 2.1673 11.8421 0.912549C11.9507 0.846643 12.0635 0.772274 12.1805 0.695147C12.6709 0.37181 13.2348 0 13.8722 0C14.6617 0 15 0.342206 15 0.912549C15 1.48289 15 1.71103 14.0978 2.39544C11.7293 4.67682 6.9925 9.69582 6.9925 15.2852C6.9925 16.768 7.89473 18.1369 8.6842 18.4791C8.79662 18.5296 8.95471 18.5886 9.14695 18.6602C10.6904 19.2356 14.4361 20.6319 14.4361 25.095ZM34.4403 25.095C34.4403 27.7186 32.3134 30 28.7314 30C25.3731 30 20 26.5779 20 20.1901C20 9.3536 29.7388 2.1673 31.7537 0.912549C31.8527 0.852051 31.9551 0.784422 32.0617 0.714074C32.5579 0.386507 33.1434 0 33.8806 0C34.6642 0 35 0.342206 35 0.912549C35 1.48289 35 1.71103 34.1045 2.39544C31.6418 4.67682 26.9403 9.69582 26.9403 15.2852C26.9403 16.768 27.8358 18.1369 28.6194 18.4791C28.734 18.531 28.8979 18.5917 29.0983 18.6661C30.6596 19.245 34.4403 20.6469 34.4403 25.095Z" fill="#EEEEF2"/>
</svg>
